<?xml version="1.0" encoding="UTF-8" standalone="no"?>
<!DOCTYPE svg PUBLIC "-//W3C//DTD SVG 1.1//EN"
 "http://www.w3.org/Graphics/SVG/1.1/DTD/svg11.dtd">
<!-- Generated by graphviz version 13.1.2 (20250808.2320)
 -->
<!-- Title: dependencies Pages: 1 -->
<svg width="1575pt" height="836pt"
 viewBox="0.00 0.00 1575.00 836.00" xmlns="http://www.w3.org/2000/svg" xmlns:xlink="http://www.w3.org/1999/xlink">
<g id="graph0" class="graph" transform="scale(1 1) rotate(0) translate(4 832)">
<title>dependencies</title>
<polygon fill="white" stroke="none" points="-4,4 -4,-832 1571.23,-832 1571.23,4 -4,4"/>
<!-- service -->
<g id="node1" class="node">
<title>service</title>
<ellipse fill="none" stroke="black" cx="504" cy="-810" rx="37.02" ry="18"/>
<text xml:space="preserve" text-anchor="middle" x="504" y="-804.95" font-family="Times,serif" font-size="14.00">service</text>
</g>
<!-- utils -->
<g id="node2" class="node">
<title>utils</title>
<ellipse fill="none" stroke="black" cx="840" cy="-738" rx="27" ry="18"/>
<text xml:space="preserve" text-anchor="middle" x="840" y="-732.95" font-family="Times,serif" font-size="14.00">utils</text>
</g>
<!-- service&#45;&gt;utils -->
<g id="edge1" class="edge">
<title>service&#45;&gt;utils</title>
<path fill="none" stroke="orange" d="M531.97,-797.79C537.86,-795.67 544.09,-793.62 550,-792 638.94,-767.63 746.35,-751.31 802.16,-743.78"/>
<polygon fill="orange" stroke="orange" points="802.31,-747.29 811.76,-742.51 801.39,-740.35 802.31,-747.29"/>
</g>
<!-- rendering -->
<g id="node3" class="node">
<title>rendering</title>
<ellipse fill="none" stroke="black" cx="779" cy="-666" rx="46.23" ry="18"/>
<text xml:space="preserve" text-anchor="middle" x="779" y="-660.95" font-family="Times,serif" font-size="14.00">rendering</text>
</g>
<!-- utils&#45;&gt;rendering -->
<g id="edge2" class="edge">
<title>utils&#45;&gt;rendering</title>
<path fill="none" stroke="orange" d="M823.11,-723.83C814.29,-715.13 803.72,-703.44 795.04,-692.92"/>
<polygon fill="orange" stroke="orange" points="797.91,-690.9 788.94,-685.27 792.44,-695.27 797.91,-690.9"/>
</g>
<!-- rendering&#45;&gt;service -->
<g id="edge22" class="edge">
<title>rendering&#45;&gt;service</title>
<path fill="none" stroke="orange" d="M751.83,-681.03C701.48,-707.03 593.79,-762.64 538.43,-791.22"/>
<polygon fill="orange" stroke="orange" points="537.03,-788.01 529.75,-795.7 540.24,-794.23 537.03,-788.01"/>
</g>
<!-- rendering&#45;&gt;utils -->
<g id="edge17" class="edge">
<title>rendering&#45;&gt;utils</title>
<path fill="none" stroke="orange" d="M798.39,-682.67C806.88,-691.26 816.61,-702.12 824.61,-711.87"/>
<polygon fill="orange" stroke="orange" points="821.76,-713.91 830.71,-719.58 827.25,-709.57 821.76,-713.91"/>
</g>
<!-- resource.resources -->
<g id="node6" class="node">
<title>resource.resources</title>
<ellipse fill="none" stroke="black" cx="1109" cy="-234" rx="79.5" ry="18"/>
<text xml:space="preserve" text-anchor="middle" x="1109" y="-228.95" font-family="Times,serif" font-size="14.00">resource.resources</text>
</g>
<!-- rendering&#45;&gt;resource.resources -->
<g id="edge19" class="edge">
<title>rendering&#45;&gt;resource.resources</title>
<path fill="none" stroke="orange" d="M813.19,-653.41C879.16,-629.35 1024.58,-567.74 1105,-468 1155.7,-405.12 1145.14,-367.34 1130,-288 1128.39,-279.54 1125.44,-270.71 1122.26,-262.74"/>
<polygon fill="orange" stroke="orange" points="1125.48,-261.36 1118.32,-253.56 1119.05,-264.13 1125.48,-261.36"/>
</g>
<!-- resource -->
<g id="node7" class="node">
<title>resource</title>
<ellipse fill="none" stroke="black" cx="946" cy="-162" rx="42.14" ry="18"/>
<text xml:space="preserve" text-anchor="middle" x="946" y="-156.95" font-family="Times,serif" font-size="14.00">resource</text>
</g>
<!-- rendering&#45;&gt;resource -->
<g id="edge18" class="edge">
<title>rendering&#45;&gt;resource</title>
<path fill="none" stroke="orange" d="M789.1,-648.16C795.02,-637.91 802.41,-624.44 808,-612 877.32,-457.63 895.08,-417.15 932,-252 936.49,-231.91 940.06,-208.95 942.48,-191.38"/>
<polygon fill="orange" stroke="orange" points="945.92,-192.06 943.76,-181.68 938.98,-191.14 945.92,-192.06"/>
</g>
<!-- ecs.components -->
<g id="node11" class="node">
<title>ecs.components</title>
<ellipse fill="none" stroke="black" cx="810" cy="-306" rx="70.29" ry="18"/>
<text xml:space="preserve" text-anchor="middle" x="810" y="-300.95" font-family="Times,serif" font-size="14.00">ecs.components</text>
</g>
<!-- rendering&#45;&gt;ecs.components -->
<g id="edge20" class="edge">
<title>rendering&#45;&gt;ecs.components</title>
<path fill="none" stroke="orange" d="M777.39,-647.73C777.75,-590.43 793.46,-406.18 803.71,-335.22"/>
<polygon fill="orange" stroke="orange" points="807.13,-336.01 805.19,-325.59 800.21,-334.94 807.13,-336.01"/>
</g>
<!-- core -->
<g id="node12" class="node">
<title>core</title>
<ellipse fill="none" stroke="black" cx="648" cy="-594" rx="27" ry="18"/>
<text xml:space="preserve" text-anchor="middle" x="648" y="-588.95" font-family="Times,serif" font-size="14.00">core</text>
</g>
<!-- rendering&#45;&gt;core -->
<g id="edge21" class="edge">
<title>rendering&#45;&gt;core</title>
<path fill="none" stroke="orange" d="M748.95,-651.83C727.01,-640.94 697.64,-625.36 676.16,-613.26"/>
<polygon fill="orange" stroke="orange" points="678.05,-610.31 667.63,-608.39 674.58,-616.38 678.05,-610.31"/>
</g>
<!-- resource.converters -->
<g id="node4" class="node">
<title>resource.converters</title>
<ellipse fill="none" stroke="black" cx="1331" cy="-306" rx="83.08" ry="18"/>
<text xml:space="preserve" text-anchor="middle" x="1331" y="-300.95" font-family="Times,serif" font-size="14.00">resource.converters</text>
</g>
<!-- resource.converters&#45;&gt;utils -->
<g id="edge4" class="edge">
<title>resource.converters&#45;&gt;utils</title>
<path fill="none" stroke="orange" d="M1324.88,-324.37C1319.39,-342.53 1313.17,-371.72 1320,-396 1325.08,-414.05 1334.59,-414.77 1342,-432 1358.18,-469.64 1366,-480.03 1366,-521 1366,-595 1366,-595 1366,-595 1366,-635.97 1373.17,-657.41 1342,-684 1306.9,-713.94 989.88,-730.49 878.49,-735.41"/>
<polygon fill="orange" stroke="orange" points="878.51,-731.91 868.67,-735.84 878.81,-738.9 878.51,-731.91"/>
</g>
<!-- asset.assets -->
<g id="node5" class="node">
<title>asset.assets</title>
<ellipse fill="none" stroke="black" cx="1256" cy="-162" rx="52.89" ry="18"/>
<text xml:space="preserve" text-anchor="middle" x="1256" y="-156.95" font-family="Times,serif" font-size="14.00">asset.assets</text>
</g>
<!-- resource.converters&#45;&gt;asset.assets -->
<g id="edge3" class="edge">
<title>resource.converters&#45;&gt;asset.assets</title>
<path fill="none" stroke="orange" d="M1321.95,-287.87C1309.11,-263.56 1285.48,-218.82 1270.27,-190.01"/>
<polygon fill="orange" stroke="orange" points="1273.55,-188.74 1265.79,-181.53 1267.36,-192 1273.55,-188.74"/>
</g>
<!-- resource.converters&#45;&gt;resource.resources -->
<g id="edge5" class="edge">
<title>resource.converters&#45;&gt;resource.resources</title>
<path fill="none" stroke="orange" d="M1285.27,-290.58C1250.27,-279.54 1201.83,-264.27 1164.59,-252.53"/>
<polygon fill="orange" stroke="orange" points="1165.94,-249.29 1155.35,-249.62 1163.84,-255.96 1165.94,-249.29"/>
</g>
<!-- resource.converters&#45;&gt;resource -->
<g id="edge6" class="edge">
<title>resource.converters&#45;&gt;resource</title>
<path fill="none" stroke="orange" d="M1314.92,-288.16C1292.44,-265 1252.31,-225.12 1234,-216 1213.06,-205.57 1073.37,-182.74 996.5,-170.73"/>
<polygon fill="orange" stroke="orange" points="997.09,-167.29 986.68,-169.21 996.02,-174.2 997.09,-167.29"/>
</g>
<!-- asset.assets&#45;&gt;utils -->
<g id="edge73" class="edge">
<title>asset.assets&#45;&gt;utils</title>
<path fill="none" stroke="orange" d="M1294.34,-174.85C1329.18,-186.15 1377.46,-203.28 1393,-216 1480.77,-287.81 1497,-335.6 1497,-449 1497,-595 1497,-595 1497,-595 1497,-651.57 1457.33,-660.22 1406,-684 1311.82,-727.63 990.31,-735.34 878.61,-736.71"/>
<polygon fill="orange" stroke="orange" points="878.73,-733.21 868.77,-736.82 878.81,-740.21 878.73,-733.21"/>
</g>
<!-- asset -->
<g id="node10" class="node">
<title>asset</title>
<ellipse fill="none" stroke="black" cx="570" cy="-90" rx="28.83" ry="18"/>
<text xml:space="preserve" text-anchor="middle" x="570" y="-84.95" font-family="Times,serif" font-size="14.00">asset</text>
</g>
<!-- asset.assets&#45;&gt;asset -->
<g id="edge72" class="edge">
<title>asset.assets&#45;&gt;asset</title>
<path fill="none" stroke="orange" d="M1208.12,-154.03C1187.1,-150.68 1162.3,-146.79 1140,-144 941.61,-119.19 703.61,-101.04 610.22,-94.1"/>
<polygon fill="orange" stroke="orange" points="610.53,-90.62 600.3,-93.37 610.01,-97.6 610.53,-90.62"/>
</g>
<!-- resource.resources&#45;&gt;utils -->
<g id="edge7" class="edge">
<title>resource.resources&#45;&gt;utils</title>
<path fill="none" stroke="orange" d="M1124.42,-251.84C1132.51,-261.67 1141.8,-274.72 1147,-288 1176.28,-362.79 1167.75,-396.59 1131,-468 1077.17,-572.61 1070.89,-611.82 978,-684 948.03,-707.29 906.64,-721.35 877.02,-729.08"/>
<polygon fill="orange" stroke="orange" points="876.24,-725.67 867.37,-731.47 877.92,-732.47 876.24,-725.67"/>
</g>
<!-- resource.resources&#45;&gt;asset.assets -->
<g id="edge9" class="edge">
<title>resource.resources&#45;&gt;asset.assets</title>
<path fill="none" stroke="orange" d="M1141.99,-217.29C1163.86,-206.87 1192.7,-193.14 1215.9,-182.09"/>
<polygon fill="orange" stroke="orange" points="1217.23,-185.34 1224.75,-177.88 1214.22,-179.02 1217.23,-185.34"/>
</g>
<!-- resource.resources&#45;&gt;resource -->
<g id="edge10" class="edge">
<title>resource.resources&#45;&gt;resource</title>
<path fill="none" stroke="orange" d="M1068.8,-218.15C1042.34,-207.37 1008.1,-192.72 982.45,-181.23"/>
<polygon fill="orange" stroke="orange" points="983.95,-178.07 973.4,-177.14 981.07,-184.45 983.95,-178.07"/>
</g>
<!-- struct -->
<g id="node8" class="node">
<title>struct</title>
<ellipse fill="none" stroke="black" cx="1109" cy="-162" rx="31.39" ry="18"/>
<text xml:space="preserve" text-anchor="middle" x="1109" y="-156.95" font-family="Times,serif" font-size="14.00">struct</text>
</g>
<!-- resource.resources&#45;&gt;struct -->
<g id="edge8" class="edge">
<title>resource.resources&#45;&gt;struct</title>
<path fill="none" stroke="blue" d="M1109,-215.7C1109,-208.41 1109,-199.73 1109,-191.54"/>
<polygon fill="blue" stroke="blue" points="1112.5,-191.62 1109,-181.62 1105.5,-191.62 1112.5,-191.62"/>
</g>
<!-- resource&#45;&gt;utils -->
<g id="edge15" class="edge">
<title>resource&#45;&gt;utils</title>
<path fill="none" stroke="orange" d="M985.19,-169.13C1051.9,-179.87 1181.93,-202.25 1198,-216 1237.02,-249.37 1219.31,-276.58 1239,-324 1275.84,-412.73 1328,-424.92 1328,-521 1328,-595 1328,-595 1328,-595 1328,-740.48 1153.49,-646.22 1013,-684 950.54,-700.79 932.32,-696.66 872,-720 871.38,-720.24 870.75,-720.49 870.12,-720.75"/>
<polygon fill="orange" stroke="orange" points="868.94,-717.44 861.34,-724.82 871.89,-723.79 868.94,-717.44"/>
</g>
<!-- resource&#45;&gt;resource.resources -->
<g id="edge16" class="edge">
<title>resource&#45;&gt;resource.resources</title>
<path fill="none" stroke="orange" d="M977.57,-174.35C1003.24,-184.64 1039.5,-200.06 1067.49,-212.51"/>
<polygon fill="orange" stroke="orange" points="1065.84,-215.6 1076.39,-216.5 1068.7,-209.21 1065.84,-215.6"/>
</g>
<!-- resource&#45;&gt;asset -->
<g id="edge14" class="edge">
<title>resource&#45;&gt;asset</title>
<path fill="none" stroke="orange" d="M907.88,-153.9C835.9,-140.5 680.74,-111.62 608.48,-98.16"/>
<polygon fill="orange" stroke="orange" points="609.17,-94.73 598.7,-96.34 607.89,-101.61 609.17,-94.73"/>
</g>
<!-- resource.loaders -->
<g id="node9" class="node">
<title>resource.loaders</title>
<ellipse fill="none" stroke="black" cx="1001" cy="-450" rx="71.31" ry="18"/>
<text xml:space="preserve" text-anchor="middle" x="1001" y="-444.95" font-family="Times,serif" font-size="14.00">resource.loaders</text>
</g>
<!-- resource.loaders&#45;&gt;utils -->
<g id="edge12" class="edge">
<title>resource.loaders&#45;&gt;utils</title>
<path fill="none" stroke="orange" d="M1002.46,-468.36C1005.02,-510.24 1005.84,-618.2 954,-684 935.02,-708.08 902.54,-721.7 877.1,-729.08"/>
<polygon fill="orange" stroke="orange" points="876.19,-725.69 867.43,-731.65 878,-732.46 876.19,-725.69"/>
</g>
<!-- resource.loaders&#45;&gt;resource.resources -->
<g id="edge13" class="edge">
<title>resource.loaders&#45;&gt;resource.resources</title>
<path fill="none" stroke="orange" d="M1009.66,-431.85C1028.34,-394.83 1072.57,-307.18 1095.18,-262.39"/>
<polygon fill="orange" stroke="orange" points="1098.24,-264.09 1099.62,-253.58 1091.99,-260.93 1098.24,-264.09"/>
</g>
<!-- resource.loaders&#45;&gt;resource -->
<g id="edge11" class="edge">
<title>resource.loaders&#45;&gt;resource</title>
<path fill="none" stroke="orange" d="M998.46,-431.66C992.66,-392.83 977.58,-296.03 960,-216 958.22,-207.88 956.02,-199.13 953.9,-191.13"/>
<polygon fill="orange" stroke="orange" points="957.3,-190.29 951.3,-181.56 950.54,-192.13 957.3,-190.29"/>
</g>
<!-- asset&#45;&gt;utils -->
<g id="edge26" class="edge">
<title>asset&#45;&gt;utils</title>
<path fill="none" stroke="orange" d="M541.65,-93.59C476.75,-99.91 319.47,-117.56 274,-144 134.47,-225.12 64.74,-313.08 110,-468 152.32,-612.86 230.25,-632.2 372,-684 450.89,-712.83 704.54,-729.52 801.67,-734.99"/>
<polygon fill="orange" stroke="orange" points="801.29,-738.47 811.47,-735.53 801.68,-731.48 801.29,-738.47"/>
</g>
<!-- asset&#45;&gt;asset.assets -->
<g id="edge23" class="edge">
<title>asset&#45;&gt;asset.assets</title>
<path fill="none" stroke="orange" d="M598.97,-92.71C684.89,-98.3 944.41,-117.29 1158,-144 1171.78,-145.72 1186.51,-147.87 1200.28,-150.04"/>
<polygon fill="orange" stroke="orange" points="1199.66,-153.49 1210.09,-151.63 1200.78,-146.58 1199.66,-153.49"/>
</g>
<!-- project -->
<g id="node13" class="node">
<title>project</title>
<ellipse fill="none" stroke="black" cx="266" cy="-18" rx="36.51" ry="18"/>
<text xml:space="preserve" text-anchor="middle" x="266" y="-12.95" font-family="Times,serif" font-size="14.00">project</text>
</g>
<!-- asset&#45;&gt;project -->
<g id="edge24" class="edge">
<title>asset&#45;&gt;project</title>
<path fill="none" stroke="orange" d="M543.02,-82.79C490.25,-70.64 372.95,-43.63 309.22,-28.95"/>
<polygon fill="orange" stroke="orange" points="310.36,-25.62 299.83,-26.79 308.79,-32.44 310.36,-25.62"/>
</g>
<!-- asset.serializers -->
<g id="node14" class="node">
<title>asset.serializers</title>
<ellipse fill="none" stroke="black" cx="570" cy="-18" rx="68.75" ry="18"/>
<text xml:space="preserve" text-anchor="middle" x="570" y="-12.95" font-family="Times,serif" font-size="14.00">asset.serializers</text>
</g>
<!-- asset&#45;&gt;asset.serializers -->
<g id="edge25" class="edge">
<title>asset&#45;&gt;asset.serializers</title>
<path fill="none" stroke="orange" d="M564.12,-72.05C563.34,-64.68 563.08,-55.84 563.35,-47.51"/>
<polygon fill="orange" stroke="orange" points="566.83,-47.99 563.99,-37.79 559.84,-47.54 566.83,-47.99"/>
</g>
<!-- ecs.components&#45;&gt;service -->
<g id="edge74" class="edge">
<title>ecs.components&#45;&gt;service</title>
<path fill="none" stroke="orange" d="M864.6,-317.72C1041.71,-354.73 1579.05,-485.85 1406,-684 1249.63,-863.05 1111.94,-726.95 876,-756 731.32,-773.81 691.86,-758.49 550,-792 547.41,-792.61 544.77,-793.33 542.13,-794.11"/>
<polygon fill="orange" stroke="orange" points="541.24,-790.72 532.83,-797.16 543.42,-797.37 541.24,-790.72"/>
</g>
<!-- ecs.components&#45;&gt;utils -->
<g id="edge75" class="edge">
<title>ecs.components&#45;&gt;utils</title>
<path fill="none" stroke="orange" d="M823.01,-323.95C847.15,-356.61 898.02,-431.43 916,-504 935.23,-581.65 953.01,-613.07 916,-684 906.9,-701.43 889.17,-714.3 873.12,-722.99"/>
<polygon fill="orange" stroke="orange" points="871.65,-719.81 864.27,-727.42 874.78,-726.07 871.65,-719.81"/>
</g>
<!-- ecs.components&#45;&gt;rendering -->
<g id="edge77" class="edge">
<title>ecs.components&#45;&gt;rendering</title>
<path fill="none" stroke="orange" d="M811.62,-324.09C811.28,-381.14 795.58,-565.37 785.33,-636.56"/>
<polygon fill="orange" stroke="orange" points="781.9,-635.82 783.84,-646.24 788.82,-636.89 781.9,-635.82"/>
</g>
<!-- ecs.components&#45;&gt;resource.resources -->
<g id="edge80" class="edge">
<title>ecs.components&#45;&gt;resource.resources</title>
<path fill="none" stroke="orange" d="M860.72,-293.13C911.22,-281.3 988.95,-263.11 1043.96,-250.23"/>
<polygon fill="orange" stroke="orange" points="1044.58,-253.68 1053.52,-247.99 1042.99,-246.86 1044.58,-253.68"/>
</g>
<!-- ecs.components&#45;&gt;resource -->
<g id="edge76" class="edge">
<title>ecs.components&#45;&gt;resource</title>
<path fill="none" stroke="orange" d="M825.7,-288.18C842.5,-270.21 869.99,-240.95 894,-216 903.31,-206.33 913.65,-195.76 922.64,-186.62"/>
<polygon fill="orange" stroke="orange" points="924.86,-189.35 929.38,-179.77 919.87,-184.44 924.86,-189.35"/>
</g>
<!-- ecs.components&#45;&gt;asset -->
<g id="edge78" class="edge">
<title>ecs.components&#45;&gt;asset</title>
<path fill="none" stroke="orange" d="M791.17,-288.21C748.19,-249.89 642.88,-155.99 594.74,-113.06"/>
<polygon fill="orange" stroke="orange" points="597.1,-110.48 587.31,-106.43 592.44,-115.7 597.1,-110.48"/>
</g>
<!-- ecs -->
<g id="node20" class="node">
<title>ecs</title>
<ellipse fill="none" stroke="black" cx="399" cy="-234" rx="27" ry="18"/>
<text xml:space="preserve" text-anchor="middle" x="399" y="-228.95" font-family="Times,serif" font-size="14.00">ecs</text>
</g>
<!-- ecs.components&#45;&gt;ecs -->
<g id="edge79" class="edge">
<title>ecs.components&#45;&gt;ecs</title>
<path fill="none" stroke="blue" d="M758.24,-293.45C749.18,-291.54 739.83,-289.65 731,-288 624.55,-268.07 498.01,-249.19 436.41,-240.3"/>
<polygon fill="blue" stroke="blue" points="437.23,-236.89 426.83,-238.93 436.24,-243.81 437.23,-236.89"/>
</g>
<!-- core&#45;&gt;service -->
<g id="edge58" class="edge">
<title>core&#45;&gt;service</title>
<path fill="none" stroke="orange" d="M632.35,-608.92C621.42,-619.1 606.89,-633.61 596,-648 562.85,-691.83 533,-748.79 516.79,-781.89"/>
<polygon fill="orange" stroke="orange" points="513.7,-780.25 512.49,-790.78 520,-783.3 513.7,-780.25"/>
</g>
<!-- core&#45;&gt;utils -->
<g id="edge51" class="edge">
<title>core&#45;&gt;utils</title>
<path fill="none" stroke="orange" d="M658.4,-611C671.67,-630.39 696.26,-663.08 724,-684 748.57,-702.53 780.65,-716.56 804.85,-725.52"/>
<polygon fill="orange" stroke="orange" points="803.67,-728.82 814.26,-728.88 806.02,-722.22 803.67,-728.82"/>
</g>
<!-- core&#45;&gt;rendering -->
<g id="edge53" class="edge">
<title>core&#45;&gt;rendering</title>
<path fill="none" stroke="orange" d="M670.39,-604.41C691.43,-614.59 722.87,-631.13 746.59,-644.36"/>
<polygon fill="orange" stroke="orange" points="744.81,-647.37 755.24,-649.24 748.25,-641.28 744.81,-647.37"/>
</g>
<!-- core&#45;&gt;resource.converters -->
<g id="edge44" class="edge">
<title>core&#45;&gt;resource.converters</title>
<path fill="none" stroke="orange" d="M675.23,-592.36C762.84,-589.91 1036.21,-579.23 1114,-540 1126.5,-533.7 1255.13,-391.44 1308.24,-332.36"/>
<polygon fill="orange" stroke="orange" points="1310.71,-334.86 1314.79,-325.08 1305.5,-330.18 1310.71,-334.86"/>
</g>
<!-- core&#45;&gt;resource.resources -->
<g id="edge54" class="edge">
<title>core&#45;&gt;resource.resources</title>
<path fill="none" stroke="orange" d="M674.48,-589.22C760.09,-576.45 1026.96,-532.07 1081,-468 1130.28,-409.57 1122.37,-311.65 1114.62,-263.5"/>
<polygon fill="orange" stroke="orange" points="1118.11,-263.13 1112.95,-253.87 1111.22,-264.32 1118.11,-263.13"/>
</g>
<!-- core&#45;&gt;resource -->
<g id="edge50" class="edge">
<title>core&#45;&gt;resource</title>
<path fill="none" stroke="orange" d="M660.89,-577.69C698.95,-532.54 810.69,-400.56 850,-360 866.42,-343.06 876.02,-343.69 889,-324 903.7,-301.69 925.95,-231.01 937.84,-191.11"/>
<polygon fill="orange" stroke="orange" points="941.13,-192.31 940.61,-181.73 934.42,-190.33 941.13,-192.31"/>
</g>
<!-- core&#45;&gt;resource.loaders -->
<g id="edge47" class="edge">
<title>core&#45;&gt;resource.loaders</title>
<path fill="none" stroke="orange" d="M670.89,-583.79C727.87,-560.87 877,-500.88 953.79,-469.99"/>
<polygon fill="orange" stroke="orange" points="954.76,-473.37 962.73,-466.4 952.14,-466.88 954.76,-473.37"/>
</g>
<!-- core&#45;&gt;asset -->
<g id="edge52" class="edge">
<title>core&#45;&gt;asset</title>
<path fill="none" stroke="orange" d="M620.87,-592.18C547.9,-589.49 349.56,-578.68 299,-540 236.89,-492.48 228,-457.2 228,-379 228,-379 228,-379 228,-233 228,-167.94 441.81,-116.99 531.32,-98.51"/>
<polygon fill="orange" stroke="orange" points="532,-101.94 541.11,-96.52 530.61,-95.08 532,-101.94"/>
</g>
<!-- core&#45;&gt;ecs.components -->
<g id="edge55" class="edge">
<title>core&#45;&gt;ecs.components</title>
<path fill="none" stroke="orange" d="M655.14,-576.14C670.2,-540.64 704.93,-459.2 718,-432 733.67,-399.39 734.39,-389.02 756,-360 763.55,-349.86 773.06,-339.85 781.98,-331.31"/>
<polygon fill="orange" stroke="orange" points="784.22,-334.02 789.17,-324.65 779.45,-328.88 784.22,-334.02"/>
</g>
<!-- core&#45;&gt;project -->
<g id="edge46" class="edge">
<title>core&#45;&gt;project</title>
<path fill="none" stroke="orange" d="M620.78,-591.71C511.97,-585.81 114,-557 114,-451 114,-451 114,-451 114,-161 114,-98.82 182.77,-56.04 227.8,-34.7"/>
<polygon fill="orange" stroke="orange" points="229.1,-37.95 236.74,-30.61 226.19,-31.58 229.1,-37.95"/>
</g>
<!-- message -->
<g id="node15" class="node">
<title>message</title>
<ellipse fill="none" stroke="black" cx="679" cy="-306" rx="42.65" ry="18"/>
<text xml:space="preserve" text-anchor="middle" x="679" y="-300.95" font-family="Times,serif" font-size="14.00">message</text>
</g>
<!-- core&#45;&gt;message -->
<g id="edge56" class="edge">
<title>core&#45;&gt;message</title>
<path fill="none" stroke="orange" d="M649.85,-575.97C654.98,-528.59 669.48,-394.87 675.89,-335.73"/>
<polygon fill="orange" stroke="orange" points="679.36,-336.13 676.96,-325.81 672.4,-335.38 679.36,-336.13"/>
</g>
<!-- asset.converters -->
<g id="node16" class="node">
<title>asset.converters</title>
<ellipse fill="none" stroke="black" cx="1399" cy="-378" rx="69.78" ry="18"/>
<text xml:space="preserve" text-anchor="middle" x="1399" y="-372.95" font-family="Times,serif" font-size="14.00">asset.converters</text>
</g>
<!-- core&#45;&gt;asset.converters -->
<g id="edge45" class="edge">
<title>core&#45;&gt;asset.converters</title>
<path fill="none" stroke="orange" d="M675.14,-591.82C766.59,-587.59 1062.66,-571.72 1152,-540 1240.49,-508.58 1329,-439.51 1372.05,-402.89"/>
<polygon fill="orange" stroke="orange" points="1374.09,-405.76 1379.39,-396.58 1369.52,-400.45 1374.09,-405.76"/>
</g>
<!-- editor -->
<g id="node18" class="node">
<title>editor</title>
<ellipse fill="none" stroke="black" cx="444" cy="-450" rx="32.41" ry="18"/>
<text xml:space="preserve" text-anchor="middle" x="444" y="-444.95" font-family="Times,serif" font-size="14.00">editor</text>
</g>
<!-- core&#45;&gt;editor -->
<g id="edge49" class="edge">
<title>core&#45;&gt;editor</title>
<path fill="none" stroke="orange" d="M632.04,-579.32C603.84,-555.17 547.72,-507.21 543,-504 522.6,-490.12 498.17,-477.01 478.69,-467.3"/>
<polygon fill="orange" stroke="orange" points="480.31,-464.2 469.79,-462.94 477.23,-470.49 480.31,-464.2"/>
</g>
<!-- editor.panels -->
<g id="node19" class="node">
<title>editor.panels</title>
<ellipse fill="none" stroke="black" cx="475" cy="-378" rx="58" ry="18"/>
<text xml:space="preserve" text-anchor="middle" x="475" y="-372.95" font-family="Times,serif" font-size="14.00">editor.panels</text>
</g>
<!-- core&#45;&gt;editor.panels -->
<g id="edge57" class="edge">
<title>core&#45;&gt;editor.panels</title>
<path fill="none" stroke="orange" d="M631.2,-579.35C614.8,-561.82 590.33,-530.49 569,-504 541.45,-469.77 509.15,-430.76 490.22,-405.55"/>
<polygon fill="orange" stroke="orange" points="493.06,-403.51 484.32,-397.51 487.41,-407.64 493.06,-403.51"/>
</g>
<!-- core&#45;&gt;ecs -->
<g id="edge59" class="edge">
<title>core&#45;&gt;ecs</title>
<path fill="none" stroke="blue" d="M621.08,-590.35C547.08,-582.84 344.6,-560.58 323,-540 293.71,-512.1 304,-491.45 304,-451 304,-451 304,-451 304,-377 304,-326.95 345.27,-281.19 373.41,-255.8"/>
<polygon fill="blue" stroke="blue" points="375.64,-258.5 380.88,-249.29 371.04,-253.23 375.64,-258.5"/>
</g>
<!-- editor.componenteditors -->
<g id="node21" class="node">
<title>editor.componenteditors</title>
<ellipse fill="none" stroke="black" cx="433" cy="-522" rx="101" ry="18"/>
<text xml:space="preserve" text-anchor="middle" x="433" y="-516.95" font-family="Times,serif" font-size="14.00">editor.componenteditors</text>
</g>
<!-- core&#45;&gt;editor.componenteditors -->
<g id="edge48" class="edge">
<title>core&#45;&gt;editor.componenteditors</title>
<path fill="none" stroke="orange" d="M623.21,-586.29C589.82,-576.26 529.93,-556.96 486.19,-542.3"/>
<polygon fill="orange" stroke="orange" points="487.47,-539.04 476.88,-539.17 485.24,-545.68 487.47,-539.04"/>
</g>
<!-- project&#45;&gt;utils -->
<g id="edge81" class="edge">
<title>project&#45;&gt;utils</title>
<path fill="none" stroke="orange" d="M229.85,-21.75C157.12,-29.45 0,-58 0,-161 0,-523 0,-523 0,-523 0,-663.48 138.38,-640.64 272,-684 371.07,-716.15 690.78,-731.25 801.69,-735.61"/>
<polygon fill="orange" stroke="orange" points="801.32,-739.1 811.45,-735.99 801.59,-732.1 801.32,-739.1"/>
</g>
<!-- asset.serializers&#45;&gt;utils -->
<g id="edge36" class="edge">
<title>asset.serializers&#45;&gt;utils</title>
<path fill="none" stroke="orange" d="M637.77,-21.61C860.54,-31.07 1556,-68.04 1556,-161 1556,-235 1556,-235 1556,-235 1556,-279.04 1616.39,-595.72 1454,-684 1354.14,-738.28 997.15,-738.97 878.59,-737.63"/>
<polygon fill="orange" stroke="orange" points="878.79,-734.14 868.75,-737.51 878.7,-741.13 878.79,-734.14"/>
</g>
<!-- asset.serializers&#45;&gt;asset -->
<g id="edge35" class="edge">
<title>asset.serializers&#45;&gt;asset</title>
<path fill="none" stroke="orange" d="M575.91,-36.28C576.67,-43.6 576.91,-52.34 576.64,-60.57"/>
<polygon fill="orange" stroke="orange" points="573.15,-60.33 575.98,-70.54 580.14,-60.8 573.15,-60.33"/>
</g>
<!-- message&#45;&gt;utils -->
<g id="edge27" class="edge">
<title>message&#45;&gt;utils</title>
<path fill="none" stroke="orange" d="M693.31,-323.42C726.99,-363.28 810.64,-469.77 840,-576 852.41,-620.91 848.66,-675.6 844.53,-708.29"/>
<polygon fill="orange" stroke="orange" points="841.07,-707.79 843.17,-718.18 848,-708.75 841.07,-707.79"/>
</g>
<!-- asset.converters&#45;&gt;utils -->
<g id="edge29" class="edge">
<title>asset.converters&#45;&gt;utils</title>
<path fill="none" stroke="orange" d="M1400.01,-396.48C1401.47,-423.27 1404,-476.1 1404,-521 1404,-595 1404,-595 1404,-595 1404,-635.97 1411.27,-657.53 1380,-684 1341.82,-716.33 995.1,-731.5 878.24,-735.73"/>
<polygon fill="orange" stroke="orange" points="878.42,-732.22 868.55,-736.07 878.67,-739.21 878.42,-732.22"/>
</g>
<!-- asset.converters&#45;&gt;asset.assets -->
<g id="edge28" class="edge">
<title>asset.converters&#45;&gt;asset.assets</title>
<path fill="none" stroke="orange" d="M1410.62,-359.87C1421.59,-341.39 1434.75,-311.47 1423,-288 1397.33,-236.72 1339.52,-201.05 1299.15,-181.3"/>
<polygon fill="orange" stroke="orange" points="1300.69,-178.16 1290.15,-177.04 1297.69,-184.48 1300.69,-178.16"/>
</g>
<!-- asset.converters&#45;&gt;asset -->
<g id="edge30" class="edge">
<title>asset.converters&#45;&gt;asset</title>
<path fill="none" stroke="orange" d="M1415.9,-360.53C1424.62,-350.83 1434.39,-337.77 1439,-324 1444.08,-308.83 1443.49,-303.36 1439,-288 1415.56,-207.76 1394.4,-177.92 1318,-144 1253.19,-115.22 756.9,-97.04 610.52,-92.26"/>
<polygon fill="orange" stroke="orange" points="610.64,-88.76 600.53,-91.94 610.41,-95.76 610.64,-88.76"/>
</g>
<!-- ROOT -->
<g id="node17" class="node">
<title>ROOT</title>
<ellipse fill="none" stroke="black" cx="641" cy="-666" rx="36" ry="18"/>
<text xml:space="preserve" text-anchor="middle" x="641" y="-660.95" font-family="Times,serif" font-size="14.00">ROOT</text>
</g>
<!-- ROOT&#45;&gt;core -->
<g id="edge31" class="edge">
<title>ROOT&#45;&gt;core</title>
<path fill="none" stroke="lightblue" d="M642.73,-647.7C643.46,-640.41 644.33,-631.73 645.15,-623.54"/>
<polygon fill="lightblue" stroke="lightblue" points="648.63,-623.91 646.14,-613.61 641.66,-623.21 648.63,-623.91"/>
</g>
<!-- editor&#45;&gt;utils -->
<g id="edge34" class="edge">
<title>editor&#45;&gt;utils</title>
<path fill="none" stroke="orange" d="M412.55,-455.13C383.75,-460.76 342.7,-473.86 323,-504 314.25,-517.39 315.42,-525.91 323,-540 417.32,-715.35 697.88,-735.89 801.22,-737.36"/>
<polygon fill="orange" stroke="orange" points="801.1,-740.86 811.12,-737.44 801.15,-733.86 801.1,-740.86"/>
</g>
<!-- editor&#45;&gt;editor.panels -->
<g id="edge32" class="edge">
<title>editor&#45;&gt;editor.panels</title>
<path fill="none" stroke="orange" d="M445.75,-431.7C448.41,-423.87 452.36,-414.44 456.58,-405.73"/>
<polygon fill="orange" stroke="orange" points="459.63,-407.46 461.1,-396.97 453.41,-404.25 459.63,-407.46"/>
</g>
<!-- editor&#45;&gt;ecs -->
<g id="edge33" class="edge">
<title>editor&#45;&gt;ecs</title>
<path fill="none" stroke="blue" d="M430.16,-433.53C422.13,-423.56 412.71,-409.91 408,-396 392.96,-351.56 393.76,-296.3 396.1,-263.44"/>
<polygon fill="blue" stroke="blue" points="399.58,-263.77 396.92,-253.52 392.61,-263.2 399.58,-263.77"/>
</g>
<!-- editor.panels&#45;&gt;service -->
<g id="edge69" class="edge">
<title>editor.panels&#45;&gt;service</title>
<path fill="none" stroke="orange" d="M417.64,-381.1C379.03,-385.73 330.19,-398.45 302,-432 271.01,-468.87 285.28,-492.46 293,-540 298.4,-573.3 299.64,-583.08 317,-612 360.9,-685.15 436.14,-753.29 476.5,-786.97"/>
<polygon fill="orange" stroke="orange" points="474.16,-789.58 484.1,-793.24 478.61,-784.18 474.16,-789.58"/>
</g>
<!-- editor.panels&#45;&gt;utils -->
<g id="edge61" class="edge">
<title>editor.panels&#45;&gt;utils</title>
<path fill="none" stroke="orange" d="M422.67,-386.26C391.84,-393.13 354.24,-406.42 330,-432 274.76,-490.3 295.7,-549.39 346,-612 377.01,-650.6 385.71,-664 431,-684 497.06,-713.17 712.98,-729.28 801.55,-734.8"/>
<polygon fill="orange" stroke="orange" points="801.23,-738.28 811.42,-735.4 801.66,-731.3 801.23,-738.28"/>
</g>
<!-- editor.panels&#45;&gt;rendering -->
<g id="edge63" class="edge">
<title>editor.panels&#45;&gt;rendering</title>
<path fill="none" stroke="orange" d="M442.41,-393.36C385.56,-420.42 278.36,-481.47 323,-540 347.94,-572.69 613.19,-630.78 727.29,-654.49"/>
<polygon fill="orange" stroke="orange" points="726.51,-657.9 737.01,-656.5 727.93,-651.05 726.51,-657.9"/>
</g>
<!-- editor.panels&#45;&gt;resource.resources -->
<g id="edge66" class="edge">
<title>editor.panels&#45;&gt;resource.resources</title>
<path fill="none" stroke="orange" d="M495.76,-360.96C523.82,-340.23 576.2,-304.81 627,-288 698.13,-264.46 903.39,-248.03 1021.85,-240.21"/>
<polygon fill="orange" stroke="orange" points="1021.78,-243.72 1031.53,-239.57 1021.32,-236.73 1021.78,-243.72"/>
</g>
<!-- editor.panels&#45;&gt;resource -->
<g id="edge62" class="edge">
<title>editor.panels&#45;&gt;resource</title>
<path fill="none" stroke="orange" d="M486.44,-360.03C513.24,-320.53 578.92,-225.07 594,-216 643.35,-186.29 807.5,-171.74 893.08,-166.03"/>
<polygon fill="orange" stroke="orange" points="893.1,-169.54 902.85,-165.4 892.64,-162.55 893.1,-169.54"/>
</g>
<!-- editor.panels&#45;&gt;asset -->
<g id="edge64" class="edge">
<title>editor.panels&#45;&gt;asset</title>
<path fill="none" stroke="orange" d="M480.66,-359.97C496.5,-312.28 541.4,-177.11 560.84,-118.58"/>
<polygon fill="orange" stroke="orange" points="564.06,-119.97 563.89,-109.38 557.42,-117.77 564.06,-119.97"/>
</g>
<!-- editor.panels&#45;&gt;ecs.components -->
<g id="edge60" class="edge">
<title>editor.panels&#45;&gt;ecs.components</title>
<path fill="none" stroke="orange" d="M522.21,-367.34C573.59,-356.8 658.17,-339.37 731,-324 736.13,-322.92 741.46,-321.79 746.8,-320.65"/>
<polygon fill="orange" stroke="orange" points="747.22,-324.14 756.26,-318.62 745.75,-317.29 747.22,-324.14"/>
</g>
<!-- editor.panels&#45;&gt;core -->
<g id="edge71" class="edge">
<title>editor.panels&#45;&gt;core</title>
<path fill="none" stroke="orange" d="M494.32,-395.08C517.23,-418.79 555.26,-464.57 587,-504 603.95,-525.06 622.9,-549.18 635.4,-566.99"/>
<polygon fill="orange" stroke="orange" points="632.27,-568.61 640.78,-574.93 638.06,-564.69 632.27,-568.61"/>
</g>
<!-- editor.panels&#45;&gt;project -->
<g id="edge65" class="edge">
<title>editor.panels&#45;&gt;project</title>
<path fill="none" stroke="orange" d="M473.34,-359.63C469.87,-329.08 459.96,-264.38 435,-216 397.8,-143.89 329.32,-75.76 291.97,-41.68"/>
<polygon fill="orange" stroke="orange" points="294.51,-39.27 284.74,-35.17 289.83,-44.47 294.51,-39.27"/>
</g>
<!-- editor.panels&#45;&gt;message -->
<g id="edge70" class="edge">
<title>editor.panels&#45;&gt;message</title>
<path fill="none" stroke="orange" d="M512.89,-364C547.77,-352.03 599.46,-334.29 635.9,-321.79"/>
<polygon fill="orange" stroke="orange" points="636.93,-325.14 645.25,-318.58 634.66,-318.52 636.93,-325.14"/>
</g>
<!-- editor.panels&#45;&gt;editor -->
<g id="edge67" class="edge">
<title>editor.panels&#45;&gt;editor</title>
<path fill="none" stroke="orange" d="M473.26,-396.29C470.51,-404.39 466.37,-414.2 461.99,-423.15"/>
<polygon fill="orange" stroke="orange" points="459.01,-421.29 457.49,-431.77 465.22,-424.52 459.01,-421.29"/>
</g>
<!-- editor.panels&#45;&gt;ecs -->
<g id="edge68" class="edge">
<title>editor.panels&#45;&gt;ecs</title>
<path fill="none" stroke="blue" d="M463.83,-360.09C457.2,-349.82 448.8,-336.34 442,-324 430.76,-303.59 419.34,-279.78 411.1,-261.93"/>
<polygon fill="blue" stroke="blue" points="414.38,-260.69 407.04,-253.05 408.01,-263.6 414.38,-260.69"/>
</g>
<!-- editor.componenteditors&#45;&gt;service -->
<g id="edge39" class="edge">
<title>editor.componenteditors&#45;&gt;service</title>
<path fill="none" stroke="orange" d="M437.3,-540.31C449.16,-588.11 482.48,-722.32 497.04,-780.97"/>
<polygon fill="orange" stroke="orange" points="493.6,-781.63 499.41,-790.5 500.39,-779.95 493.6,-781.63"/>
</g>
<!-- editor.componenteditors&#45;&gt;utils -->
<g id="edge37" class="edge">
<title>editor.componenteditors&#45;&gt;utils</title>
<path fill="none" stroke="orange" d="M445.11,-540.29C469.53,-573.73 528.15,-647.24 596,-684 662.34,-719.94 751.25,-731.51 801.39,-735.23"/>
<polygon fill="orange" stroke="orange" points="800.94,-738.71 811.16,-735.89 801.41,-731.73 800.94,-738.71"/>
</g>
<!-- editor.componenteditors&#45;&gt;resource -->
<g id="edge40" class="edge">
<title>editor.componenteditors&#45;&gt;resource</title>
<path fill="none" stroke="orange" d="M450.34,-504.25C460.68,-494.04 473.92,-480.57 485,-468 512,-437.39 516.71,-428.04 542,-396 579.85,-348.05 577.96,-324.42 627,-288 711.53,-225.23 831.68,-189.5 897.77,-173.43"/>
<polygon fill="orange" stroke="orange" points="898.29,-176.9 907.21,-171.19 896.67,-170.09 898.29,-176.9"/>
</g>
<!-- editor.componenteditors&#45;&gt;asset -->
<g id="edge41" class="edge">
<title>editor.componenteditors&#45;&gt;asset</title>
<path fill="none" stroke="orange" d="M412.8,-504C385.99,-479.41 342,-431.12 342,-379 342,-379 342,-379 342,-305 342,-264.36 339.07,-248.85 363,-216 406.25,-156.63 487.08,-120.02 533.91,-102.8"/>
<polygon fill="orange" stroke="orange" points="534.82,-106.19 543.06,-99.53 532.47,-99.6 534.82,-106.19"/>
</g>
<!-- editor.componenteditors&#45;&gt;ecs.components -->
<g id="edge43" class="edge">
<title>editor.componenteditors&#45;&gt;ecs.components</title>
<path fill="none" stroke="orange" d="M493.96,-507.22C522.85,-498.84 556.89,-486.19 584,-468 637.33,-432.22 627.57,-397.09 680,-360 702.09,-344.38 729.46,-332.34 753.38,-323.71"/>
<polygon fill="orange" stroke="orange" points="754.38,-327.07 762.67,-320.48 752.08,-320.46 754.38,-327.07"/>
</g>
<!-- editor.componenteditors&#45;&gt;core -->
<g id="edge38" class="edge">
<title>editor.componenteditors&#45;&gt;core</title>
<path fill="none" stroke="orange" d="M484.22,-537.84C524.55,-550.46 579.5,-568.38 614.44,-580.34"/>
<polygon fill="orange" stroke="orange" points="613.01,-583.54 623.6,-583.5 615.29,-576.93 613.01,-583.54"/>
</g>
<!-- editor.componenteditors&#45;&gt;editor -->
<g id="edge42" class="edge">
<title>editor.componenteditors&#45;&gt;editor</title>
<path fill="none" stroke="orange" d="M435.72,-503.7C436.88,-496.32 438.26,-487.52 439.56,-479.25"/>
<polygon fill="orange" stroke="orange" points="442.98,-480.02 441.08,-469.6 436.07,-478.93 442.98,-480.02"/>
</g>
<!-- geometry -->
<g id="node22" class="node">
<title>geometry</title>
<ellipse fill="none" stroke="black" cx="605" cy="-810" rx="46.23" ry="18"/>
<text xml:space="preserve" text-anchor="middle" x="605" y="-804.95" font-family="Times,serif" font-size="14.00">geometry</text>
</g>
</g>
</svg>
